<svg width="17" height="17" viewBox="0 0 17 17" fill="none" xmlns="http://www.w3.org/2000/svg">
<path d="M15.9699 15.5234L12.0232 11.63C12.521 11.0256 12.9121 10.3589 13.1965 9.63003C13.481 8.90114 13.6232 8.1278 13.6232 7.31003C13.6232 6.10114 13.321 4.98114 12.7165 3.95003C12.1121 2.91892 11.2943 2.10114 10.2632 1.49669C9.23211 0.892249 8.10322 0.590027 6.87655 0.590027C5.64988 0.590027 4.52099 0.892249 3.48988 1.49669C2.45877 2.10114 1.64099 2.91892 1.03655 3.95003C0.432105 4.98114 0.129883 6.11003 0.129883 7.33669C0.129883 8.56336 0.432105 9.69225 1.03655 10.7234C1.64099 11.7545 2.45877 12.5722 3.48988 13.1767C4.52099 13.7811 5.64099 14.0834 6.84988 14.0834C7.66766 14.0834 8.44099 13.9411 9.16988 13.6567C9.89877 13.3722 10.5654 12.9811 11.1699 12.4834L15.0632 16.43C15.2054 16.5367 15.3566 16.59 15.5166 16.59C15.6765 16.59 15.8188 16.5278 15.9432 16.4034C16.0677 16.2789 16.1299 16.1367 16.1299 15.9767C16.1299 15.8167 16.0765 15.6656 15.9699 15.5234ZM1.35655 7.31003C1.35655 6.31447 1.60544 5.39892 2.10322 4.56336C2.60099 3.7278 3.26766 3.06114 4.10322 2.56336C4.93877 2.06558 5.85433 1.81669 6.84988 1.81669C7.84544 1.81669 8.76099 2.06558 9.59655 2.56336C10.4321 3.06114 11.0988 3.7278 11.5965 4.56336C12.0943 5.39892 12.3432 6.31447 12.3432 7.31003C12.3432 8.30558 12.0943 9.22114 11.5965 10.0567C11.0988 10.8922 10.4321 11.5589 9.59655 12.0567C8.76099 12.5545 7.84544 12.8034 6.84988 12.8034C5.85433 12.8034 4.93877 12.5545 4.10322 12.0567C3.26766 11.5589 2.60099 10.8922 2.10322 10.0567C1.60544 9.22114 1.35655 8.30558 1.35655 7.31003Z" fill="#1A1A1A"/>
</svg>
